<?xml version="1.0" encoding="iso-8859-1"?>
<!-- Uploaded to: SVG Repo, www.svgrepo.com, Generator: SVG Repo Mixer Tools -->
<svg height="800px" width="800px" version="1.1" id="Layer_1" xmlns="http://www.w3.org/2000/svg" xmlns:xlink="http://www.w3.org/1999/xlink" 
	 viewBox="0 0 495.929 495.929" xml:space="preserve">
<path style="fill:#D8BA8F;" d="M274.365,26.228c-2.4-16-11.2-5.6-31.2-0.8c-20.8-4.8-28.8-15.2-32,0.8c-36-8.8-63.2-46.4-63.2-0.8
	c0,51.2,50.4,124,92.8,124c0.8,0,1.6,0,2.4,0c0.8,0,1.6,0,2.4,0c41.6,0,92.8-72.8,92.8-124
	C337.565-20.172,310.365,18.228,274.365,26.228z"/>
<path style="fill:#C1A580;" d="M267.965,26.228c-2.4-16-8.8-5.6-25.6-0.8c-16-4.8-23.2-15.2-25.6,0.8c-28.8-8.8-50.4-46.4-50.4-0.8
	c0,51.2,40,124,73.6,124c0.8,0,0.8,0,1.6,0s0.8,0,1.6,0c33.6,0,73.6-72.8,73.6-124C319.165-20.172,296.765,18.228,267.965,26.228z"
	/>
<path style="fill:#D8BA8F;" d="M466.365,406.228c4-11.2,5.6-23.2,5.6-36.8c0-100-100-221.6-224-221.6s-224,122.4-224,221.6
	c0,13.6,1.6,26.4,5.6,36.8c-20.8,13.6-32.8,30.4-28.8,44c5.6,20.8,44.8,28.8,89.6,18.4c40.8,18.4,96,24,157.6,24s116.8-5.6,157.6-24
	c44.8,10.4,84,2.4,89.6-18.4C499.165,436.628,487.165,419.828,466.365,406.228z"/>
<path style="fill:#C1A580;" d="M466.365,406.228c4-11.2,5.6-23.2,5.6-36.8c0-100-100-207.2-224-207.2s-224,108-224,207.2
	c0,13.6,1.6,26.4,5.6,36.8c-20.8,13.6-32.8,30.4-28.8,44c5.6,20.8,44.8,28.8,89.6,18.4c40.8,18.4,96,24,157.6,24s116.8-5.6,157.6-24
	c44.8,10.4,84,2.4,89.6-18.4C499.165,436.628,487.165,419.828,466.365,406.228z"/>
<path style="fill:#FFB000;" d="M305.565,146.228c0,8.8-7.2,15.2-15.2,15.2h-84.8c-8.8,0-15.2-7.2-15.2-15.2l0,0
	c0-8.8,7.2-15.2,15.2-15.2h84C298.365,130.228,305.565,137.428,305.565,146.228L305.565,146.228z"/>
<path style="fill:#FF7300;" d="M290.365,140.628c0-4-0.8-7.2-2.4-10.4h-80c-1.6,3.2-2.4,6.4-2.4,10.4c0,8,3.2,14.4,8,20.8h68
	C287.165,155.828,290.365,148.628,290.365,140.628z"/>
<g>
	<path style="fill:#D8BA8F;" d="M91.965,276.628c0-14.4,11.2-25.6,25.6-25.6c0.8,0,2.4,0,3.2,0c-3.2-2.4-7.2-3.2-11.2-3.2
		c-11.2,0-20.8,9.6-20.8,20.8c0,4,1.6,8,3.2,11.2C91.965,278.228,91.965,277.428,91.965,276.628z"/>
	<path style="fill:#D8BA8F;" d="M80.765,364.628c-12.8-14.4-11.2-36.8,4-48.8c0.8-0.8,2.4-1.6,3.2-2.4c-5.6,0.8-10.4,2.4-14.4,6.4
		c-12,10.4-12.8,28-3.2,39.2c4,4,8,7.2,13.6,8.8C82.365,366.228,81.565,365.428,80.765,364.628z"/>
	<path style="fill:#D8BA8F;" d="M143.965,231.828c3.2-8.8,12.8-12.8,21.6-9.6c0.8,0,0.8,0.8,1.6,0.8c-1.6-2.4-3.2-4-5.6-4.8
		c-7.2-2.4-14.4,0.8-16.8,7.2c-0.8,2.4-0.8,4.8-0.8,7.2C143.165,233.428,143.165,232.628,143.965,231.828z"/>
	<path style="fill:#D8BA8F;" d="M367.965,257.428c13.6,4.8,20.8,19.2,16,32.8c0,0.8-0.8,1.6-1.6,2.4c3.2-2.4,5.6-5.6,7.2-9.6
		c4-10.4-2.4-22.4-12.8-26.4c-4-1.6-8-1.6-12-0.8C366.365,256.628,367.165,256.628,367.965,257.428z"/>
	<path style="fill:#D8BA8F;" d="M287.965,218.228c17.6-7.2,38.4,1.6,45.6,19.2c0.8,1.6,0.8,2.4,0.8,4c0.8-4.8,0.8-10.4-1.6-16
		c-5.6-14.4-21.6-20.8-36-15.2c-5.6,2.4-9.6,5.6-12.8,9.6C285.565,219.828,287.165,219.028,287.965,218.228z"/>
	<path style="fill:#D8BA8F;" d="M393.565,320.628c7.2,5.6,8,16,2.4,23.2c-0.8,0.8-0.8,0.8-1.6,1.6c2.4-0.8,4.8-2.4,6.4-4
		c4.8-5.6,4-13.6-1.6-18.4c-2.4-2.4-4.8-3.2-7.2-3.2C392.765,319.828,393.565,320.628,393.565,320.628z"/>
</g>
</svg>